<svg xmlns="http://www.w3.org/2000/svg" viewBox="0 0 148.83 148.83"><defs><style>.cls-1{fill:#ffccd9;}</style></defs><title>Asset 8</title><g id="Layer_2" data-name="Layer 2"><g id="Layer_1-2" data-name="Layer 1"><path class="cls-1" d="M74.41,0a74.41,74.41,0,0,0-66,40.09,4.31,4.31,0,0,1,.66,1.3,17,17,0,0,1,.4,1.82c3.78,19,15.07,52.87,48.23,65.37,23.69,8.94,44-4.23,47.79-7A4.5,4.5,0,1,1,110.7,109c-3.36,2.4-17.61,11.69-36.35,11.69A56,56,0,0,1,54.5,117C29.34,107.51,11.22,85.39,2.8,54.22A74.41,74.41,0,1,0,74.41,0Zm37.24,81.46c0,4.21-2.42,6.91-5.94,6.93s-6-2.62-6-6.83c0-8.5,0-17,0-25.5a12.25,12.25,0,0,0-.18-2.91,3.11,3.11,0,0,0-3.94-2.55,3.25,3.25,0,0,0-2.76,4.11,9.39,9.39,0,0,0,.66,1.61c3.66,9.58,3.33,13,3.72,16.11a27.65,27.65,0,0,1,0,6.73c-.83,3.92-1,4.63-3.08,6.13-5,3.53-10.3,4.2-15.78,1.62a14.48,14.48,0,0,1-8.85-13.45c-.16-6.15.14-12.31,0-18.46a5.45,5.45,0,0,0-1.8-3.9,3.93,3.93,0,0,0-3.83.45c-.82.9-1,3.08-.72,4.08,2.3,9.87,3.27,11.42,3.7,17.62.08,1.14.77,2.91.66,4.3-.41,4.87-.25,3.57-1.69,6.17-4.45,4.33-9.74,5.83-15.63,4S40.1,81.57,39.62,75.25c-.54-7.19-.37-12.57-.37-19.8-.08,0,.08-1.87,0-1.87,0-6.55,0-3.42,0-10,0-2.62.69-5.46,3.1-6.8a5.86,5.86,0,0,1,8.75,5A30.77,30.77,0,0,1,50.48,47c-.75,4.69-1.6,9.3-.92,14,.56,3.9.68,4.86,1.19,8.7a24.54,24.54,0,0,0,1.17,4c.62,1.39.7,1.65,1.87,2.39.71.46,3-.21,3.45-1a5.24,5.24,0,0,0,.28-4.23C56,67.49,54,64.35,52.35,61A15.34,15.34,0,0,1,63.5,38.78c6-1.05,12,.44,14.71,5.84.51,1,.5,1.3.69,3.89.65,8,.29,7.78.52,11.76.25,4.39.73,6.52,2.11,11.89a15.87,15.87,0,0,0,.94,3.13c.5,1.24,3,1,4.18.48,2-.89,2.13-2.86,1.13-4.77-1.87-3.55-3.93-7-5.62-10.62a15.29,15.29,0,0,1,7.12-20.2,15.14,15.14,0,0,1,20.37,6.47,19,19,0,0,1,1.92,7.85C111.8,63.48,111.69,72.47,111.65,81.46Z"/></g></g></svg>